# https://github.com/mikedh/trimesh
mtllib material.mtl
usemtl material_0
v -0.03000000 -0.00500000 0.05000000
v -0.03000000 -0.00500000 0.05000000
v -0.03000000 -0.00500000 0.05000000
v 0.02000000 -0.00500000 0.05000000
v 0.02000000 -0.00500000 0.05000000
v 0.02000000 -0.00500000 0.02000000
v 0.02000000 -0.00500000 0.02000000
v 0.02000000 -0.00500000 0.02000000
v -0.03000000 -0.00500000 0.02000000
v -0.03000000 -0.00500000 0.02000000
v -0.03000000 -0.00500000 0.02000000
v 0.02129410 -0.00482960 0.05000000
v 0.02129410 -0.00482960 0.05000000
v 0.02250000 -0.00433010 0.05000000
v 0.02250000 -0.00433010 0.05000000
v 0.02353550 -0.00353550 0.05000000
v 0.02353550 -0.00353550 0.05000000
v 0.02433010 -0.00250000 0.05000000
v 0.02433010 -0.00250000 0.05000000
v 0.02482960 -0.00129410 0.05000000
v 0.02482960 -0.00129410 0.05000000
v 0.02500000 0.00000000 0.05000000
v 0.02500000 0.00000000 0.05000000
v 0.02500000 0.00000000 0.05000000
v 0.02500000 0.00000000 0.02000000
v 0.02500000 0.00000000 0.02000000
v 0.02500000 0.00000000 0.02000000
v 0.02482960 -0.00129410 0.02000000
v 0.02482960 -0.00129410 0.02000000
v 0.02433010 -0.00250000 0.02000000
v 0.02433010 -0.00250000 0.02000000
v 0.02353550 -0.00353550 0.02000000
v 0.02353550 -0.00353550 0.02000000
v 0.02250000 -0.00433010 0.02000000
v 0.02250000 -0.00433010 0.02000000
v 0.02129410 -0.00482960 0.02000000
v 0.02129410 -0.00482960 0.02000000
v 0.02500000 0.03000000 0.05000000
v 0.02500000 0.03000000 0.05000000
v 0.02500000 0.03000000 0.02000000
v 0.02500000 0.03000000 0.02000000
v 0.02500000 0.03000000 0.02000000
v 0.02482960 0.03129410 0.05000000
v 0.02482960 0.03129410 0.05000000
v 0.02433010 0.03250000 0.05000000
v 0.02433010 0.03250000 0.05000000
v 0.02353550 0.03353550 0.05000000
v 0.02353550 0.03353550 0.05000000
v 0.02250000 0.03433010 0.05000000
v 0.02250000 0.03433010 0.05000000
v 0.02129410 0.03482960 0.05000000
v 0.02129410 0.03482960 0.05000000
v 0.02000000 0.03500000 0.05000000
v 0.02000000 0.03500000 0.05000000
v 0.02000000 0.03500000 0.05000000
v 0.02000000 0.03500000 0.02000000
v 0.02000000 0.03500000 0.02000000
v 0.02000000 0.03500000 0.02000000
v 0.02129410 0.03482960 0.02000000
v 0.02129410 0.03482960 0.02000000
v 0.02250000 0.03433010 0.02000000
v 0.02250000 0.03433010 0.02000000
v 0.02353550 0.03353550 0.02000000
v 0.02353550 0.03353550 0.02000000
v 0.02433010 0.03250000 0.02000000
v 0.02433010 0.03250000 0.02000000
v 0.02482960 0.03129410 0.02000000
v 0.02482960 0.03129410 0.02000000
v -0.03000000 0.03500000 0.05000000
v -0.03000000 0.03500000 0.05000000
v -0.03000000 0.03500000 0.02000000
v -0.03000000 0.03500000 0.02000000
v -0.03000000 0.03500000 0.02000000
v -0.03129410 0.03482960 0.05000000
v -0.03129410 0.03482960 0.05000000
v -0.03250000 0.03433010 0.05000000
v -0.03250000 0.03433010 0.05000000
v -0.03353550 0.03353550 0.05000000
v -0.03353550 0.03353550 0.05000000
v -0.03433010 0.03250000 0.05000000
v -0.03433010 0.03250000 0.05000000
v -0.03482960 0.03129410 0.05000000
v -0.03482960 0.03129410 0.05000000
v -0.03500000 0.03000000 0.05000000
v -0.03500000 0.03000000 0.05000000
v -0.03500000 0.03000000 0.05000000
v -0.03500000 0.03000000 0.02000000
v -0.03500000 0.03000000 0.02000000
v -0.03500000 0.03000000 0.02000000
v -0.03482960 0.03129410 0.02000000
v -0.03482960 0.03129410 0.02000000
v -0.03433010 0.03250000 0.02000000
v -0.03433010 0.03250000 0.02000000
v -0.03353550 0.03353550 0.02000000
v -0.03353550 0.03353550 0.02000000
v -0.03250000 0.03433010 0.02000000
v -0.03250000 0.03433010 0.02000000
v -0.03129410 0.03482960 0.02000000
v -0.03129410 0.03482960 0.02000000
v -0.03500000 0.00000000 0.05000000
v -0.03500000 0.00000000 0.05000000
v -0.03500000 0.00000000 0.02000000
v -0.03500000 0.00000000 0.02000000
v -0.03500000 0.00000000 0.02000000
v -0.03482960 -0.00129410 0.05000000
v -0.03482960 -0.00129410 0.05000000
v -0.03433010 -0.00250000 0.05000000
v -0.03433010 -0.00250000 0.05000000
v -0.03353550 -0.00353550 0.05000000
v -0.03353550 -0.00353550 0.05000000
v -0.03250000 -0.00433010 0.05000000
v -0.03250000 -0.00433010 0.05000000
v -0.03129410 -0.00482960 0.05000000
v -0.03129410 -0.00482960 0.05000000
v -0.03129410 -0.00482960 0.02000000
v -0.03129410 -0.00482960 0.02000000
v -0.03250000 -0.00433010 0.02000000
v -0.03250000 -0.00433010 0.02000000
v -0.03353550 -0.00353550 0.02000000
v -0.03353550 -0.00353550 0.02000000
v -0.03433010 -0.00250000 0.02000000
v -0.03433010 -0.00250000 0.02000000
v -0.03482960 -0.00129410 0.02000000
v -0.03482960 -0.00129410 0.02000000
v 0.01000000 -0.02500000 0.02000000
v 0.01000000 -0.02500000 0.02000000
v 0.01000000 -0.02500000 0.02000000
v 0.00965930 -0.02758820 0.02000000
v 0.00965930 -0.02758820 0.02000000
v 0.00866030 -0.03000000 0.02000000
v 0.00866030 -0.03000000 0.02000000
v 0.00707110 -0.03207110 0.02000000
v 0.00707110 -0.03207110 0.02000000
v 0.00500000 -0.03366020 0.02000000
v 0.00500000 -0.03366020 0.02000000
v 0.00258820 -0.03465930 0.02000000
v 0.00258820 -0.03465930 0.02000000
v 0.00000000 -0.03500000 0.02000000
v 0.00000000 -0.03500000 0.02000000
v -0.00258820 -0.03465930 0.02000000
v -0.00258820 -0.03465930 0.02000000
v -0.00500000 -0.03366020 0.02000000
v -0.00500000 -0.03366020 0.02000000
v -0.00707110 -0.03207110 0.02000000
v -0.00707110 -0.03207110 0.02000000
v -0.00866030 -0.03000000 0.02000000
v -0.00866030 -0.03000000 0.02000000
v -0.00965930 -0.02758820 0.02000000
v -0.00965930 -0.02758820 0.02000000
v -0.01000000 -0.02500000 0.02000000
v -0.01000000 -0.02500000 0.02000000
v -0.00965930 -0.02241180 0.02000000
v -0.00965930 -0.02241180 0.02000000
v -0.00866030 -0.02000000 0.02000000
v -0.00866030 -0.02000000 0.02000000
v -0.00707110 -0.01792890 0.02000000
v -0.00707110 -0.01792890 0.02000000
v -0.00500000 -0.01633970 0.02000000
v -0.00500000 -0.01633970 0.02000000
v -0.00258820 -0.01534070 0.02000000
v -0.00258820 -0.01534070 0.02000000
v 0.00000000 -0.01500000 0.02000000
v 0.00000000 -0.01500000 0.02000000
v 0.00258820 -0.01534070 0.02000000
v 0.00258820 -0.01534070 0.02000000
v 0.00500000 -0.01633970 0.02000000
v 0.00500000 -0.01633970 0.02000000
v 0.00707110 -0.01792890 0.02000000
v 0.00707110 -0.01792890 0.02000000
v 0.00866030 -0.02000000 0.02000000
v 0.00866030 -0.02000000 0.02000000
v 0.00965930 -0.02241180 0.02000000
v 0.00965930 -0.02241180 0.02000000
v 0.01000000 -0.02500000 0.05000000
v 0.01000000 -0.02500000 0.05000000
v 0.01000000 -0.02500000 0.05000000
v 0.00965930 -0.02241180 0.05000000
v 0.00965930 -0.02241180 0.05000000
v 0.00866030 -0.02000000 0.05000000
v 0.00866030 -0.02000000 0.05000000
v 0.00707110 -0.01792890 0.05000000
v 0.00707110 -0.01792890 0.05000000
v 0.00500000 -0.01633970 0.05000000
v 0.00500000 -0.01633970 0.05000000
v 0.00258820 -0.01534070 0.05000000
v 0.00258820 -0.01534070 0.05000000
v 0.00000000 -0.01500000 0.05000000
v 0.00000000 -0.01500000 0.05000000
v -0.00258820 -0.01534070 0.05000000
v -0.00258820 -0.01534070 0.05000000
v -0.00500000 -0.01633970 0.05000000
v -0.00500000 -0.01633970 0.05000000
v -0.00707110 -0.01792890 0.05000000
v -0.00707110 -0.01792890 0.05000000
v -0.00866030 -0.02000000 0.05000000
v -0.00866030 -0.02000000 0.05000000
v -0.00965930 -0.02241180 0.05000000
v -0.00965930 -0.02241180 0.05000000
v -0.01000000 -0.02500000 0.05000000
v -0.01000000 -0.02500000 0.05000000
v -0.00965930 -0.02758820 0.05000000
v -0.00965930 -0.02758820 0.05000000
v -0.00866030 -0.03000000 0.05000000
v -0.00866030 -0.03000000 0.05000000
v -0.00707110 -0.03207110 0.05000000
v -0.00707110 -0.03207110 0.05000000
v -0.00500000 -0.03366020 0.05000000
v -0.00500000 -0.03366020 0.05000000
v -0.00258820 -0.03465930 0.05000000
v -0.00258820 -0.03465930 0.05000000
v 0.00000000 -0.03500000 0.05000000
v 0.00000000 -0.03500000 0.05000000
v 0.00258820 -0.03465930 0.05000000
v 0.00258820 -0.03465930 0.05000000
v 0.00500000 -0.03366020 0.05000000
v 0.00500000 -0.03366020 0.05000000
v 0.00707110 -0.03207110 0.05000000
v 0.00707110 -0.03207110 0.05000000
v 0.00866030 -0.03000000 0.05000000
v 0.00866030 -0.03000000 0.05000000
v 0.00965930 -0.02758820 0.05000000
v 0.00965930 -0.02758820 0.05000000
v -0.05000000 0.04000000 0.01000000
v -0.05000000 0.04000000 0.01000000
v -0.05000000 0.04000000 0.01000000
v -0.05000000 -0.04000000 0.01000000
v -0.05000000 -0.04000000 0.01000000
v -0.05000000 -0.04000000 0.01000000
v -0.05000000 -0.04000000 0.05000000
v -0.05000000 -0.04000000 0.05000000
v -0.05000000 -0.04000000 0.05000000
v -0.05000000 0.04000000 0.05000000
v -0.05000000 0.04000000 0.05000000
v -0.05000000 0.04000000 0.05000000
v 0.05000000 -0.04000000 0.01000000
v 0.05000000 -0.04000000 0.01000000
v 0.05000000 -0.04000000 0.01000000
v 0.05000000 -0.04000000 0.05000000
v 0.05000000 -0.04000000 0.05000000
v 0.05000000 -0.04000000 0.05000000
v 0.05000000 0.04000000 0.01000000
v 0.05000000 0.04000000 0.01000000
v 0.05000000 0.04000000 0.01000000
v 0.05000000 0.04000000 0.05000000
v 0.05000000 0.04000000 0.05000000
v 0.05000000 0.04000000 0.05000000
v -0.05100000 0.04100000 0.00000000
v -0.05100000 0.04100000 0.00000000
v -0.05100000 0.04100000 0.00000000
v -0.05100000 -0.04100000 0.00000000
v -0.05100000 -0.04100000 0.00000000
v -0.05100000 -0.04100000 0.00000000
v -0.05100000 -0.04100000 0.01000000
v -0.05100000 -0.04100000 0.01000000
v -0.05100000 -0.04100000 0.01000000
v -0.05100000 0.04100000 0.01000000
v -0.05100000 0.04100000 0.01000000
v -0.05100000 0.04100000 0.01000000
v 0.05100000 0.04100000 0.00000000
v 0.05100000 0.04100000 0.00000000
v 0.05100000 0.04100000 0.00000000
v 0.05100000 0.04100000 0.01000000
v 0.05100000 0.04100000 0.01000000
v 0.05100000 0.04100000 0.01000000
v 0.05100000 -0.04100000 0.00000000
v 0.05100000 -0.04100000 0.00000000
v 0.05100000 -0.04100000 0.00000000
v 0.05100000 -0.04100000 0.01000000
v 0.05100000 -0.04100000 0.01000000
v 0.05100000 -0.04100000 0.01000000
vn 0.00000000 1.00000000 0.00000000
vn 0.00000000 0.00000000 1.00000000
vn 0.00000000 1.00000000 0.00000000
vn 0.00000000 1.00000000 0.00000000
vn 0.00000000 0.00000000 1.00000000
vn 0.00000000 1.00000000 0.00000000
vn 0.00000000 1.00000000 0.00000000
vn 0.00000000 0.00000000 1.00000000
vn 0.00000000 1.00000000 0.00000000
vn 0.00000000 1.00000000 0.00000000
vn 0.00000000 0.00000000 1.00000000
vn -0.25881896 0.96592585 0.00000000
vn 0.00000000 0.00000000 1.00000000
vn 0.00000000 0.00000000 1.00000000
vn -0.50000017 0.86602530 0.00000000
vn 0.00000000 0.00000000 1.00000000
vn -0.70710678 0.70710678 0.00000000
vn -0.86602530 0.50000017 0.00000000
vn 0.00000000 0.00000000 1.00000000
vn 0.00000000 0.00000000 1.00000000
vn -0.96592585 0.25881896 0.00000000
vn -1.00000000 0.00000000 0.00000000
vn 0.00000000 0.00000000 1.00000000
vn -1.00000000 0.00000000 0.00000000
vn -1.00000000 0.00000000 0.00000000
vn -1.00000000 0.00000000 0.00000000
vn 0.00000000 0.00000000 1.00000000
vn -0.96592585 0.25881896 0.00000000
vn 0.00000000 0.00000000 1.00000000
vn -0.86602530 0.50000017 0.00000000
vn 0.00000000 0.00000000 1.00000000
vn 0.00000000 0.00000000 1.00000000
vn -0.70710678 0.70710678 0.00000000
vn 0.00000000 0.00000000 1.00000000
vn -0.50000017 0.86602530 0.00000000
vn -0.25881896 0.96592585 0.00000000
vn 0.00000000 0.00000000 1.00000000
vn -1.00000000 0.00000000 0.00000000
vn 0.00000000 0.00000000 1.00000000
vn 0.00000000 0.00000000 1.00000000
vn -1.00000000 0.00000000 0.00000000
vn -1.00000000 0.00000000 0.00000000
vn -0.96592585 -0.25881896 0.00000000
vn 0.00000000 0.00000000 1.00000000
vn 0.00000000 0.00000000 1.00000000
vn -0.86602530 -0.50000017 0.00000000
vn -0.70710678 -0.70710678 0.00000000
vn 0.00000000 0.00000000 1.00000000
vn 0.00000000 0.00000000 1.00000000
vn -0.50000017 -0.86602530 0.00000000
vn 0.00000000 0.00000000 1.00000000
vn -0.25881896 -0.96592585 0.00000000
vn 0.00000000 0.00000000 1.00000000
vn 0.00000000 -1.00000000 0.00000000
vn 0.00000000 -1.00000000 0.00000000
vn 0.00000000 0.00000000 1.00000000
vn 0.00000000 -1.00000000 0.00000000
vn 0.00000000 -1.00000000 0.00000000
vn -0.25881896 -0.96592585 0.00000000
vn 0.00000000 0.00000000 1.00000000
vn -0.50000017 -0.86602530 0.00000000
vn 0.00000000 0.00000000 1.00000000
vn -0.70710678 -0.70710678 0.00000000
vn 0.00000000 0.00000000 1.00000000
vn 0.00000000 0.00000000 1.00000000
vn -0.86602530 -0.50000017 0.00000000
vn -0.96592585 -0.25881896 0.00000000
vn 0.00000000 0.00000000 1.00000000
vn 0.00000000 0.00000000 1.00000000
vn 0.00000000 -1.00000000 0.00000000
vn 0.00000000 0.00000000 1.00000000
vn 0.00000000 -1.00000000 0.00000000
vn 0.00000000 -1.00000000 0.00000000
vn 0.00000000 0.00000000 1.00000000
vn 0.25881896 -0.96592585 0.00000000
vn 0.00000000 0.00000000 1.00000000
vn 0.50000017 -0.86602530 0.00000000
vn 0.00000000 0.00000000 1.00000000
vn 0.70710678 -0.70710678 0.00000000
vn 0.00000000 0.00000000 1.00000000
vn 0.86602530 -0.50000017 0.00000000
vn 0.00000000 0.00000000 1.00000000
vn 0.96592585 -0.25881896 0.00000000
vn 0.00000000 0.00000000 1.00000000
vn 1.00000000 0.00000000 0.00000000
vn 1.00000000 0.00000000 0.00000000
vn 1.00000000 0.00000000 0.00000000
vn 1.00000000 0.00000000 0.00000000
vn 0.00000000 0.00000000 1.00000000
vn 0.96592585 -0.25881896 0.00000000
vn 0.00000000 0.00000000 1.00000000
vn 0.86602530 -0.50000017 0.00000000
vn 0.00000000 0.00000000 1.00000000
vn 0.70710678 -0.70710678 0.00000000
vn 0.00000000 0.00000000 1.00000000
vn 0.50000017 -0.86602530 0.00000000
vn 0.00000000 0.00000000 1.00000000
vn 0.00000000 0.00000000 1.00000000
vn 0.25881896 -0.96592585 0.00000000
vn 1.00000000 0.00000000 0.00000000
vn 0.00000000 0.00000000 1.00000000
vn 1.00000000 0.00000000 0.00000000
vn 1.00000000 0.00000000 0.00000000
vn 0.00000000 0.00000000 1.00000000
vn 0.96592585 0.25881896 0.00000000
vn 0.00000000 0.00000000 1.00000000
vn 0.00000000 0.00000000 1.00000000
vn 0.86602530 0.50000017 0.00000000
vn 0.70710678 0.70710678 0.00000000
vn 0.00000000 0.00000000 1.00000000
vn 0.00000000 0.00000000 1.00000000
vn 0.50000017 0.86602530 0.00000000
vn 0.25881896 0.96592585 0.00000000
vn 0.00000000 0.00000000 1.00000000
vn 0.25881896 0.96592585 0.00000000
vn 0.00000000 0.00000000 1.00000000
vn 0.50000017 0.86602530 0.00000000
vn 0.00000000 0.00000000 1.00000000
vn 0.00000000 0.00000000 1.00000000
vn 0.70710678 0.70710678 0.00000000
vn 0.86602530 0.50000017 0.00000000
vn 0.00000000 0.00000000 1.00000000
vn 0.00000000 0.00000000 1.00000000
vn 0.96592585 0.25881896 0.00000000
vn -1.00000000 0.00000000 0.00000000
vn 0.00000000 0.00000000 1.00000000
vn -1.00000000 0.00000000 0.00000000
vn -0.96592585 0.25881896 0.00000000
vn 0.00000000 0.00000000 1.00000000
vn -0.86602530 0.50000017 0.00000000
vn 0.00000000 0.00000000 1.00000000
vn 0.00000000 0.00000000 1.00000000
vn -0.70710678 0.70710678 0.00000000
vn -0.50000017 0.86602530 0.00000000
vn 0.00000000 0.00000000 1.00000000
vn 0.00000000 0.00000000 1.00000000
vn -0.25881896 0.96592585 0.00000000
vn 0.00000000 1.00000000 0.00000000
vn 0.00000000 0.00000000 1.00000000
vn 0.25881896 0.96592585 0.00000000
vn 0.00000000 0.00000000 1.00000000
vn 0.00000000 0.00000000 1.00000000
vn 0.50000017 0.86602530 0.00000000
vn 0.70710678 0.70710678 0.00000000
vn 0.00000000 0.00000000 1.00000000
vn 0.86602530 0.50000017 0.00000000
vn 0.00000000 0.00000000 1.00000000
vn 0.00000000 0.00000000 1.00000000
vn 0.96592585 0.25881896 0.00000000
vn 0.00000000 0.00000000 1.00000000
vn 1.00000000 0.00000000 0.00000000
vn 0.00000000 0.00000000 1.00000000
vn 0.96592585 -0.25881896 0.00000000
vn 0.86602530 -0.50000017 0.00000000
vn 0.00000000 0.00000000 1.00000000
vn 0.00000000 0.00000000 1.00000000
vn 0.70710678 -0.70710678 0.00000000
vn 0.00000000 0.00000000 1.00000000
vn 0.50000017 -0.86602530 0.00000000
vn 0.00000000 0.00000000 1.00000000
vn 0.25881896 -0.96592585 0.00000000
vn 0.00000000 0.00000000 1.00000000
vn 0.00000000 -1.00000000 0.00000000
vn -0.25881896 -0.96592585 0.00000000
vn 0.00000000 0.00000000 1.00000000
vn -0.50000017 -0.86602530 0.00000000
vn 0.00000000 0.00000000 1.00000000
vn -0.70710678 -0.70710678 0.00000000
vn 0.00000000 0.00000000 1.00000000
vn -0.86602530 -0.50000017 0.00000000
vn 0.00000000 0.00000000 1.00000000
vn -0.96592585 -0.25881896 0.00000000
vn 0.00000000 0.00000000 1.00000000
vn -1.00000000 0.00000000 0.00000000
vn -1.00000000 0.00000000 0.00000000
vn 0.00000000 0.00000000 1.00000000
vn 0.00000000 0.00000000 1.00000000
vn -0.96592585 -0.25881896 0.00000000
vn 0.00000000 0.00000000 1.00000000
vn -0.86602530 -0.50000017 0.00000000
vn 0.00000000 0.00000000 1.00000000
vn -0.70710678 -0.70710678 0.00000000
vn -0.50000017 -0.86602530 0.00000000
vn 0.00000000 0.00000000 1.00000000
vn -0.25881896 -0.96592585 0.00000000
vn 0.00000000 0.00000000 1.00000000
vn 0.00000000 -1.00000000 0.00000000
vn 0.00000000 0.00000000 1.00000000
vn 0.00000000 0.00000000 1.00000000
vn 0.25881896 -0.96592585 0.00000000
vn 0.50000017 -0.86602530 0.00000000
vn 0.00000000 0.00000000 1.00000000
vn 0.70710678 -0.70710678 0.00000000
vn 0.00000000 0.00000000 1.00000000
vn 0.86602530 -0.50000017 0.00000000
vn 0.00000000 0.00000000 1.00000000
vn 0.00000000 0.00000000 1.00000000
vn 0.96592585 -0.25881896 0.00000000
vn 1.00000000 0.00000000 0.00000000
vn 0.00000000 0.00000000 1.00000000
vn 0.96592585 0.25881896 0.00000000
vn 0.00000000 0.00000000 1.00000000
vn 0.00000000 0.00000000 1.00000000
vn 0.86602530 0.50000017 0.00000000
vn 0.00000000 0.00000000 1.00000000
vn 0.70710678 0.70710678 0.00000000
vn 0.50000017 0.86602530 0.00000000
vn 0.00000000 0.00000000 1.00000000
vn 0.25881896 0.96592585 0.00000000
vn 0.00000000 0.00000000 1.00000000
vn 0.00000000 1.00000000 0.00000000
vn 0.00000000 0.00000000 1.00000000
vn -0.25881896 0.96592585 0.00000000
vn 0.00000000 0.00000000 1.00000000
vn 0.00000000 0.00000000 1.00000000
vn -0.50000017 0.86602530 0.00000000
vn 0.00000000 0.00000000 1.00000000
vn -0.70710678 0.70710678 0.00000000
vn -0.86602530 0.50000017 0.00000000
vn 0.00000000 0.00000000 1.00000000
vn -0.96592585 0.25881896 0.00000000
vn 0.00000000 0.00000000 1.00000000
vn 0.00000000 0.00000000 1.00000000
vn -1.00000000 0.00000000 0.00000000
vn 0.00000000 1.00000000 0.00000000
vn 0.00000000 -1.00000000 0.00000000
vn 0.00000000 0.00000000 1.00000000
vn -1.00000000 0.00000000 0.00000000
vn 0.00000000 0.00000000 1.00000000
vn 0.00000000 -1.00000000 0.00000000
vn -1.00000000 0.00000000 0.00000000
vn -1.00000000 0.00000000 0.00000000
vn 0.00000000 0.00000000 1.00000000
vn 0.00000000 1.00000000 0.00000000
vn 1.00000000 0.00000000 0.00000000
vn 0.00000000 0.00000000 1.00000000
vn 0.00000000 -1.00000000 0.00000000
vn 0.00000000 0.00000000 1.00000000
vn 0.00000000 -1.00000000 0.00000000
vn 1.00000000 0.00000000 0.00000000
vn 0.00000000 1.00000000 0.00000000
vn 1.00000000 0.00000000 0.00000000
vn 0.00000000 0.00000000 1.00000000
vn 0.00000000 1.00000000 0.00000000
vn 0.00000000 0.00000000 1.00000000
vn 1.00000000 0.00000000 0.00000000
vn 0.00000000 1.00000000 0.00000000
vn 0.00000000 0.00000000 -1.00000000
vn -1.00000000 0.00000000 0.00000000
vn -1.00000000 0.00000000 0.00000000
vn 0.00000000 0.00000000 -1.00000000
vn 0.00000000 -1.00000000 0.00000000
vn 0.00000000 0.00000000 1.00000000
vn 0.00000000 -1.00000000 0.00000000
vn -1.00000000 0.00000000 0.00000000
vn -1.00000000 0.00000000 0.00000000
vn 0.00000000 0.00000000 1.00000000
vn 0.00000000 1.00000000 0.00000000
vn 0.00000000 1.00000000 0.00000000
vn 1.00000000 0.00000000 0.00000000
vn 0.00000000 0.00000000 -1.00000000
vn 0.00000000 0.00000000 1.00000000
vn 1.00000000 0.00000000 0.00000000
vn 0.00000000 1.00000000 0.00000000
vn 0.00000000 -1.00000000 0.00000000
vn 1.00000000 0.00000000 0.00000000
vn 0.00000000 0.00000000 -1.00000000
vn 1.00000000 0.00000000 0.00000000
vn 0.00000000 -1.00000000 0.00000000
vn 0.00000000 0.00000000 1.00000000
vt -5.00000000 0.00000000
vt -3.00000000 -0.50000000
vt 0.00000000 -0.78539800
vt -0.00000000 0.00000000
vt 2.00000000 -0.50000000
vt 0.00000000 3.00000000
vt 3.00000000 0.00000000
vt -2.50000000 2.00000000
vt -5.00000000 3.00000000
vt 3.00000000 -0.78539800
vt 2.50000000 2.00000000
vt 0.00000000 -0.13090000
vt 2.12941000 -0.48296300
vt 2.25000000 -0.43301300
vt 0.00000000 -0.26179900
vt 2.35355300 -0.35355300
vt 0.00000000 -0.39269900
vt 0.00000000 -0.52359900
vt 2.43301300 -0.25000000
vt 2.48296300 -0.12941000
vt 0.00000000 -0.65449800
vt -3.00000000 0.00000000
vt 2.50000000 0.00000000
vt 0.00000000 -0.78539800
vt -3.00000000 3.00000000
vt 3.00000000 -0.78539800
vt -3.00000000 1.50000000
vt 3.00000000 -0.65449800
vt -2.98296300 1.62941000
vt 3.00000000 -0.52359900
vt -2.93301300 1.75000000
vt -2.85355300 1.85355300
vt 3.00000000 -0.39269900
vt -2.75000000 1.93301300
vt 3.00000000 -0.26179900
vt 3.00000000 -0.13090000
vt -2.62941000 1.98296300
vt 0.00000000 0.00000000
vt 2.50000000 3.00000000
vt -3.00000000 -1.50000000
vt 3.00000000 0.00000000
vt -0.00000000 3.00000000
vt 0.00000000 -0.13090000
vt 2.48296300 3.12941000
vt 2.43301300 3.25000000
vt 0.00000000 -0.26179900
vt 0.00000000 -0.39269900
vt 2.35355300 3.35355300
vt 2.25000000 3.43301300
vt 0.00000000 -0.52359900
vt 2.12941000 3.48296300
vt 0.00000000 -0.65449800
vt 2.00000000 3.50000000
vt 0.00000000 -0.78539800
vt -5.00000000 0.00000000
vt -2.50000000 -2.00000000
vt -5.00000000 3.00000000
vt 3.00000000 -0.78539800
vt 3.00000000 -0.65449800
vt -2.62941000 -1.98296300
vt 3.00000000 -0.52359900
vt -2.75000000 -1.93301300
vt 3.00000000 -0.39269900
vt -2.85355300 -1.85355300
vt -2.93301300 -1.75000000
vt 3.00000000 -0.26179900
vt 3.00000000 -0.13090000
vt -2.98296300 -1.62941000
vt -3.00000000 3.50000000
vt -0.00000000 0.00000000
vt 2.50000000 -2.00000000
vt -0.00000000 3.00000000
vt 3.00000000 0.00000000
vt -3.12941000 3.48296300
vt 0.00000000 -0.13090000
vt -3.25000000 3.43301300
vt 0.00000000 -0.26179900
vt -3.35355300 3.35355300
vt 0.00000000 -0.39269900
vt -3.43301300 3.25000000
vt 0.00000000 -0.52359900
vt -3.48296300 3.12941000
vt 0.00000000 -0.65449800
vt -3.50000000 3.00000000
vt -3.00000000 0.00000000
vt -0.00000000 -0.78539800
vt 3.00000000 -0.78539800
vt -3.00000000 3.00000000
vt 3.00000000 -1.50000000
vt 3.00000000 -0.65449800
vt 2.98296300 -1.62941000
vt 3.00000000 -0.52359900
vt 2.93301300 -1.75000000
vt 3.00000000 -0.39269900
vt 2.85355300 -1.85355300
vt 3.00000000 -0.26179900
vt 2.75000000 -1.93301300
vt 2.62941000 -1.98296300
vt 3.00000000 -0.13090000
vt -0.00000000 0.00000000
vt -3.50000000 -0.00000000
vt -0.00000000 3.00000000
vt 3.00000000 0.00000000
vt 3.00000000 1.50000000
vt -0.00000000 -0.13090000
vt -3.48296300 -0.12941000
vt -3.43301300 -0.25000000
vt -0.00000000 -0.26179900
vt 0.00000000 -0.39269900
vt -3.35355300 -0.35355300
vt -3.25000000 -0.43301300
vt -0.00000000 -0.52359900
vt -0.00000000 -0.65449800
vt -3.12941000 -0.48296300
vt 3.00000000 -0.65449800
vt 2.62941000 1.98296300
vt 3.00000000 -0.52359900
vt 2.75000000 1.93301300
vt 2.85355300 1.85355300
vt 3.00000000 -0.39269900
vt 3.00000000 -0.26179900
vt 2.93301300 1.75000000
vt 2.98296300 1.62941000
vt 3.00000000 -0.13090000
vt 3.00000000 -3.14159300
vt -1.00000000 0.00000000
vt 3.00000000 3.14159300
vt 3.00000000 -2.87979300
vt -0.96592600 0.25881900
vt 3.00000000 -2.61799400
vt -0.86602500 0.50000000
vt -0.70710700 0.70710700
vt 3.00000000 -2.35619400
vt 3.00000000 -2.09439500
vt -0.50000000 0.86602500
vt -0.25881900 0.96592600
vt 3.00000000 -1.83259600
vt 3.00000000 -1.57079600
vt 0.00000000 1.00000000
vt 3.00000000 -1.30899700
vt 0.25881900 0.96592600
vt 0.50000000 0.86602500
vt 3.00000000 -1.04719800
vt 3.00000000 -0.78539800
vt 0.70710700 0.70710700
vt 3.00000000 -0.52359900
vt 0.86602500 0.50000000
vt 0.96592600 0.25881900
vt 3.00000000 -0.26179900
vt 1.00000000 0.00000000
vt 3.00000000 0.00000000
vt 0.96592600 -0.25881900
vt 3.00000000 0.26179900
vt 3.00000000 0.52359900
vt 0.86602500 -0.50000000
vt 0.70710700 -0.70710700
vt 3.00000000 0.78539800
vt 0.50000000 -0.86602500
vt 3.00000000 1.04719800
vt 0.25881900 -0.96592600
vt 3.00000000 1.30899700
vt 0.00000000 -1.00000000
vt 3.00000000 1.57079600
vt 3.00000000 1.83259600
vt -0.25881900 -0.96592600
vt 3.00000000 2.09439500
vt -0.50000000 -0.86602500
vt 3.00000000 2.35619400
vt -0.70710700 -0.70710700
vt 3.00000000 2.61799400
vt -0.86602500 -0.50000000
vt 3.00000000 2.87979300
vt -0.96592600 -0.25881900
vt 0.00000000 3.14159300
vt 0.00000000 -3.14159300
vt 1.00000000 -2.50000000
vt 0.96592600 -2.24118100
vt 0.00000000 2.87979300
vt 0.86602500 -2.00000000
vt 0.00000000 2.61799400
vt 0.70710700 -1.79289300
vt 0.00000000 2.35619400
vt 0.00000000 2.09439500
vt 0.50000000 -1.63397500
vt 0.00000000 1.83259600
vt 0.25881900 -1.53407400
vt 0.00000000 1.57079600
vt -0.00000000 -1.50000000
vt -0.25881900 -1.53407400
vt 0.00000000 1.30899700
vt 0.00000000 1.04719800
vt -0.50000000 -1.63397500
vt 0.00000000 0.78539800
vt -0.70710700 -1.79289300
vt 0.00000000 0.52359900
vt -0.86602500 -2.00000000
vt -0.96592600 -2.24118100
vt 0.00000000 0.26179900
vt 0.00000000 0.00000000
vt -1.00000000 -2.50000000
vt -0.00000000 -0.26179900
vt -0.96592600 -2.75881900
vt -0.86602500 -3.00000000
vt -0.00000000 -0.52359900
vt -0.70710700 -3.20710700
vt -0.00000000 -0.78539800
vt -0.00000000 -1.04719800
vt -0.50000000 -3.36602500
vt -0.00000000 -1.30899700
vt -0.25881900 -3.46592600
vt -0.00000000 -1.57079600
vt -0.00000000 -3.50000000
vt 0.00000000 -1.83259600
vt 0.25881900 -3.46592600
vt 0.50000000 -3.36602500
vt 0.00000000 -2.09439500
vt 0.70710700 -3.20710700
vt 0.00000000 -2.35619400
vt 0.00000000 -2.61799400
vt 0.86602500 -3.00000000
vt 0.00000000 -2.87979300
vt 0.96592600 -2.75881900
vt -5.00000000 4.00000000
vt -0.00000000 1.00000000
vt 10.00000000 1.00000000
vt 0.00000000 1.00000000
vt -5.00000000 -4.00000000
vt 8.00000000 1.00000000
vt -5.00000000 -4.00000000
vt 0.00000000 5.00000000
vt 8.00000000 5.00000000
vt -0.00000000 5.00000000
vt -5.00000000 4.00000000
vt 10.00000000 5.00000000
vt 0.00000000 1.00000000
vt 5.00000000 -4.00000000
vt 10.00000000 1.00000000
vt 5.00000000 -4.00000000
vt 10.00000000 5.00000000
vt 0.00000000 5.00000000
vt -0.00000000 1.00000000
vt 8.00000000 1.00000000
vt 5.00000000 4.00000000
vt -0.00000000 5.00000000
vt 5.00000000 4.00000000
vt 8.00000000 5.00000000
vt 10.20000000 0.00000000
vt 5.10000000 4.10000000
vt -0.00000000 0.00000000
vt 8.20000000 0.00000000
vt 5.10000000 -4.10000000
vt 0.00000000 0.00000000
vt -5.10000000 -4.10000000
vt 0.00000000 1.00000000
vt 8.20000000 1.00000000
vt -0.00000000 1.00000000
vt -5.10000000 4.10000000
vt 10.20000000 1.00000000
vt -0.00000000 0.00000000
vt 8.20000000 0.00000000
vt -5.10000000 4.10000000
vt 5.10000000 4.10000000
vt 8.20000000 1.00000000
vt -0.00000000 1.00000000
vt 10.20000000 0.00000000
vt 0.00000000 0.00000000
vt -5.10000000 -4.10000000
vt 0.00000000 1.00000000
vt 10.20000000 1.00000000
vt 5.10000000 -4.10000000
f 1/1/1 4/4/4 9/9/9
f 9/9/9 4/4/4 6/6/6
f 7/7/7 4/4/4 36/36/36
f 36/36/36 4/4/4 12/12/12
f 36/36/36 12/12/12 35/35/35
f 35/35/35 12/12/12 15/15/15
f 35/35/35 15/15/15 33/33/33
f 33/33/33 15/15/15 17/17/17
f 33/33/33 17/17/17 30/30/30
f 30/30/30 17/17/17 18/18/18
f 30/30/30 18/18/18 28/28/28
f 28/28/28 18/18/18 21/21/21
f 28/28/28 21/21/21 26/26/26
f 26/26/26 21/21/21 24/24/24
f 22/22/22 38/38/38 25/25/25
f 25/25/25 38/38/38 42/42/42
f 41/41/41 38/38/38 67/67/67
f 67/67/67 38/38/38 43/43/43
f 67/67/67 43/43/43 66/66/66
f 66/66/66 43/43/43 46/46/46
f 66/66/66 46/46/46 63/63/63
f 63/63/63 46/46/46 47/47/47
f 63/63/63 47/47/47 61/61/61
f 61/61/61 47/47/47 50/50/50
f 61/61/61 50/50/50 59/59/59
f 59/59/59 50/50/50 52/52/52
f 59/59/59 52/52/52 58/58/58
f 58/58/58 52/52/52 54/54/54
f 55/55/55 70/70/70 57/57/57
f 57/57/57 70/70/70 72/72/72
f 73/73/73 70/70/70 99/99/99
f 99/99/99 70/70/70 75/75/75
f 99/99/99 75/75/75 96/96/96
f 96/96/96 75/75/75 77/77/77
f 96/96/96 77/77/77 94/94/94
f 94/94/94 77/77/77 79/79/79
f 94/94/94 79/79/79 92/92/92
f 92/92/92 79/79/79 81/81/81
f 92/92/92 81/81/81 90/90/90
f 90/90/90 81/81/81 83/83/83
f 90/90/90 83/83/83 87/87/87
f 87/87/87 83/83/83 86/86/86
f 85/85/85 100/100/100 88/88/88
f 88/88/88 100/100/100 102/102/102
f 103/103/103 100/100/100 124/124/124
f 124/124/124 100/100/100 105/105/105
f 124/124/124 105/105/105 121/121/121
f 121/121/121 105/105/105 108/108/108
f 121/121/121 108/108/108 120/120/120
f 120/120/120 108/108/108 109/109/109
f 120/120/120 109/109/109 117/117/117
f 117/117/117 109/109/109 112/112/112
f 117/117/117 112/112/112 115/115/115
f 115/115/115 112/112/112 113/113/113
f 115/115/115 113/113/113 10/10/10
f 10/10/10 113/113/113 3/3/3
f 123/123/123 11/11/11 104/104/104
f 104/104/104 11/11/11 8/8/8
f 104/104/104 8/8/8 27/27/27
f 27/27/27 8/8/8 29/29/29
f 29/29/29 8/8/8 31/31/31
f 31/31/31 8/8/8 32/32/32
f 32/32/32 8/8/8 34/34/34
f 34/34/34 8/8/8 37/37/37
f 123/123/123 122/122/122 11/11/11
f 11/11/11 122/122/122 119/119/119
f 11/11/11 119/119/119 118/118/118
f 118/118/118 116/116/116 11/11/11
f 104/104/104 27/27/27 89/89/89
f 89/89/89 27/27/27 40/40/40
f 89/89/89 40/40/40 71/71/71
f 71/71/71 40/40/40 56/56/56
f 56/56/56 40/40/40 68/68/68
f 56/56/56 68/68/68 65/65/65
f 65/65/65 64/64/64 56/56/56
f 56/56/56 64/64/64 62/62/62
f 56/56/56 62/62/62 60/60/60
f 98/98/98 97/97/97 71/71/71
f 71/71/71 97/97/97 95/95/95
f 71/71/71 95/95/95 93/93/93
f 93/93/93 91/91/91 71/71/71
f 71/71/71 91/91/91 89/89/89
f 128/128/128 221/221/221 125/125/125
f 125/125/125 221/221/221 175/175/175
f 127/127/127 174/174/174 172/172/172
f 172/172/172 174/174/174 178/178/178
f 172/172/172 178/178/178 170/170/170
f 170/170/170 178/178/178 180/180/180
f 170/170/170 180/180/180 168/168/168
f 168/168/168 180/180/180 182/182/182
f 168/168/168 182/182/182 166/166/166
f 166/166/166 182/182/182 183/183/183
f 166/166/166 183/183/183 164/164/164
f 164/164/164 183/183/183 185/185/185
f 164/164/164 185/185/185 163/163/163
f 163/163/163 185/185/185 187/187/187
f 163/163/163 187/187/187 161/161/161
f 161/161/161 187/187/187 190/190/190
f 161/161/161 190/190/190 159/159/159
f 159/159/159 190/190/190 191/191/191
f 159/159/159 191/191/191 157/157/157
f 157/157/157 191/191/191 193/193/193
f 157/157/157 193/193/193 154/154/154
f 154/154/154 193/193/193 195/195/195
f 154/154/154 195/195/195 153/153/153
f 153/153/153 195/195/195 198/198/198
f 153/153/153 198/198/198 151/151/151
f 151/151/151 198/198/198 199/199/199
f 151/151/151 199/199/199 149/149/149
f 149/149/149 199/199/199 201/201/201
f 149/149/149 201/201/201 146/146/146
f 146/146/146 201/201/201 204/204/204
f 146/146/146 204/204/204 144/144/144
f 144/144/144 204/204/204 206/206/206
f 144/144/144 206/206/206 143/143/143
f 143/143/143 206/206/206 207/207/207
f 143/143/143 207/207/207 140/140/140
f 140/140/140 207/207/207 209/209/209
f 140/140/140 209/209/209 138/138/138
f 138/138/138 209/209/209 211/211/211
f 138/138/138 211/211/211 137/137/137
f 137/137/137 211/211/211 213/213/213
f 137/137/137 213/213/213 134/134/134
f 134/134/134 213/213/213 216/216/216
f 134/134/134 216/216/216 133/133/133
f 133/133/133 216/216/216 218/218/218
f 133/133/133 218/218/218 130/130/130
f 130/130/130 218/218/218 219/219/219
f 130/130/130 219/219/219 128/128/128
f 128/128/128 219/219/219 221/221/221
f 173/173/173 152/152/152 126/126/126
f 126/126/126 152/152/152 150/150/150
f 126/126/126 150/150/150 129/129/129
f 129/129/129 150/150/150 148/148/148
f 129/129/129 148/148/148 131/131/131
f 131/131/131 148/148/148 147/147/147
f 131/131/131 147/147/147 132/132/132
f 132/132/132 147/147/147 145/145/145
f 132/132/132 145/145/145 135/135/135
f 135/135/135 145/145/145 142/142/142
f 135/135/135 142/142/142 136/136/136
f 136/136/136 142/142/142 141/141/141
f 136/136/136 141/141/141 139/139/139
f 152/152/152 173/173/173 155/155/155
f 155/155/155 173/173/173 171/171/171
f 155/155/155 171/171/171 156/156/156
f 156/156/156 171/171/171 169/169/169
f 156/156/156 169/169/169 158/158/158
f 158/158/158 169/169/169 167/167/167
f 158/158/158 167/167/167 160/160/160
f 160/160/160 167/167/167 165/165/165
f 160/160/160 165/165/165 162/162/162
f 224/224/224 228/228/228 232/232/232
f 232/232/232 228/228/228 231/231/231
f 226/226/226 237/237/237 230/230/230
f 230/230/230 237/237/237 239/239/239
f 241/241/241 225/225/225 244/244/244
f 244/244/244 225/225/225 234/234/234
f 235/235/235 242/242/242 240/240/240
f 240/240/240 242/242/242 246/246/246
f 2/2/2 188/188/188 5/5/5
f 5/5/5 188/188/188 186/186/186
f 5/5/5 186/186/186 184/184/184
f 114/114/114 200/200/200 2/2/2
f 2/2/2 200/200/200 197/197/197
f 2/2/2 197/197/197 196/196/196
f 200/200/200 114/114/114 229/229/229
f 229/229/229 114/114/114 111/111/111
f 229/229/229 111/111/111 110/110/110
f 110/110/110 107/107/107 229/229/229
f 229/229/229 107/107/107 106/106/106
f 229/229/229 106/106/106 101/101/101
f 229/229/229 101/101/101 233/233/233
f 233/233/233 101/101/101 84/84/84
f 233/233/233 84/84/84 82/82/82
f 82/82/82 80/80/80 233/233/233
f 233/233/233 80/80/80 78/78/78
f 233/233/233 78/78/78 76/76/76
f 76/76/76 74/74/74 233/233/233
f 233/233/233 74/74/74 69/69/69
f 233/233/233 69/69/69 53/53/53
f 233/233/233 53/53/53 245/245/245
f 245/245/245 53/53/53 51/51/51
f 245/245/245 51/51/51 49/49/49
f 49/49/49 48/48/48 245/245/245
f 245/245/245 48/48/48 45/45/45
f 245/245/245 45/45/45 44/44/44
f 44/44/44 39/39/39 245/245/245
f 245/245/245 39/39/39 23/23/23
f 245/245/245 23/23/23 238/238/238
f 238/238/238 23/23/23 20/20/20
f 238/238/238 20/20/20 19/19/19
f 19/19/19 16/16/16 238/238/238
f 238/238/238 16/16/16 14/14/14
f 238/238/238 14/14/14 176/176/176
f 176/176/176 14/14/14 177/177/177
f 177/177/177 14/14/14 13/13/13
f 177/177/177 13/13/13 179/179/179
f 179/179/179 13/13/13 5/5/5
f 179/179/179 5/5/5 181/181/181
f 181/181/181 5/5/5 184/184/184
f 176/176/176 222/222/222 238/238/238
f 238/238/238 222/222/222 220/220/220
f 238/238/238 220/220/220 217/217/217
f 217/217/217 215/215/215 238/238/238
f 238/238/238 215/215/215 214/214/214
f 238/238/238 214/214/214 212/212/212
f 238/238/238 212/212/212 229/229/229
f 229/229/229 212/212/212 210/210/210
f 229/229/229 210/210/210 208/208/208
f 208/208/208 205/205/205 229/229/229
f 229/229/229 205/205/205 203/203/203
f 229/229/229 203/203/203 202/202/202
f 202/202/202 200/200/200 229/229/229
f 196/196/196 194/194/194 2/2/2
f 2/2/2 194/194/194 192/192/192
f 2/2/2 192/192/192 189/189/189
f 189/189/189 188/188/188 2/2/2
f 249/249/249 250/250/250 256/256/256
f 256/256/256 250/250/250 255/255/255
f 259/259/259 247/247/247 264/264/264
f 264/264/264 247/247/247 258/258/258
f 266/266/266 260/260/260 268/268/268
f 268/268/268 260/260/260 263/263/263
f 252/252/252 265/265/265 254/254/254
f 254/254/254 265/265/265 269/269/269
f 243/243/243 236/236/236 270/270/270
f 270/270/270 236/236/236 227/227/227
f 270/270/270 227/227/227 253/253/253
f 253/253/253 227/227/227 223/223/223
f 253/253/253 223/223/223 257/257/257
f 257/257/257 223/223/223 243/243/243
f 257/257/257 243/243/243 262/262/262
f 262/262/262 243/243/243 270/270/270
f 267/267/267 251/251/251 261/261/261
f 261/261/261 251/251/251 248/248/248

