solid PARTassembly
   facet normal -1.0000 0.0000 0.0000
      outer loop
         vertex 0.0000 -18.3526 -4.9176
         vertex 0.0000 -19.0000 0.0000
         vertex 0.0000 -18.3526 4.9176
      endloop
   endfacet
   facet normal -1.0000 0.0000 0.0000
      outer loop
         vertex 0.0000 -18.3526 -4.9176
         vertex 0.0000 -18.3526 4.9176
         vertex 0.0000 -16.4545 9.5000
      endloop
   endfacet
   facet normal -1.0000 0.0000 0.0000
      outer loop
         vertex 0.0000 -18.3526 -4.9176
         vertex 0.0000 -16.4545 9.5000
         vertex 0.0000 -13.4350 13.4350
      endloop
   endfacet
   facet normal -1.0000 0.0000 0.0000
      outer loop
         vertex 0.0000 -18.3526 -4.9176
         vertex 0.0000 -13.4350 13.4350
         vertex 0.0000 -9.5000 16.4545
      endloop
   endfacet
   facet normal -1.0000 0.0000 0.0000
      outer loop
         vertex 0.0000 -18.3526 -4.9176
         vertex 0.0000 -9.5000 16.4545
         vertex 0.0000 -4.9176 18.3526
      endloop
   endfacet
   facet normal -1.0000 0.0000 0.0000
      outer loop
         vertex 0.0000 -18.3526 -4.9176
         vertex 0.0000 -4.9176 18.3526
         vertex 0.0000 0.0000 19.0000
      endloop
   endfacet
   facet normal -1.0000 0.0000 0.0000
      outer loop
         vertex 0.0000 -18.3526 -4.9176
         vertex 0.0000 0.0000 19.0000
         vertex 0.0000 4.9176 18.3526
      endloop
   endfacet
   facet normal -1.0000 0.0000 0.0000
      outer loop
         vertex 0.0000 -18.3526 -4.9176
         vertex 0.0000 4.9176 18.3526
         vertex 0.0000 9.5000 16.4545
      endloop
   endfacet
   facet normal -1.0000 0.0000 0.0000
      outer loop
         vertex 0.0000 -18.3526 -4.9176
         vertex 0.0000 9.5000 16.4545
         vertex 0.0000 13.4350 13.4350
      endloop
   endfacet
   facet normal -1.0000 0.0000 0.0000
      outer loop
         vertex 0.0000 -18.3526 -4.9176
         vertex 0.0000 13.4350 13.4350
         vertex 0.0000 16.4545 9.5000
      endloop
   endfacet
   facet normal -1.0000 0.0000 0.0000
      outer loop
         vertex 0.0000 -18.3526 -4.9176
         vertex 0.0000 16.4545 9.5000
         vertex 0.0000 18.3526 4.9176
      endloop
   endfacet
   facet normal -1.0000 0.0000 0.0000
      outer loop
         vertex 0.0000 -18.3526 -4.9176
         vertex 0.0000 18.3526 4.9176
         vertex 0.0000 19.0000 0.0000
      endloop
   endfacet
   facet normal -1.0000 0.0000 0.0000
      outer loop
         vertex 0.0000 -18.3526 -4.9176
         vertex 0.0000 19.0000 0.0000
         vertex 0.0000 18.3526 -4.9176
      endloop
   endfacet
   facet normal -1.0000 0.0000 0.0000
      outer loop
         vertex 0.0000 -18.3526 -4.9176
         vertex 0.0000 18.3526 -4.9176
         vertex 0.0000 16.4545 -9.5000
      endloop
   endfacet
   facet normal -1.0000 0.0000 0.0000
      outer loop
         vertex 0.0000 -18.3526 -4.9176
         vertex 0.0000 16.4545 -9.5000
         vertex 0.0000 13.4350 -13.4350
      endloop
   endfacet
   facet normal -1.0000 0.0000 0.0000
      outer loop
         vertex 0.0000 -18.3526 -4.9176
         vertex 0.0000 13.4350 -13.4350
         vertex 0.0000 9.5000 -16.4545
      endloop
   endfacet
   facet normal -1.0000 0.0000 0.0000
      outer loop
         vertex 0.0000 -18.3526 -4.9176
         vertex 0.0000 9.5000 -16.4545
         vertex 0.0000 4.9176 -18.3526
      endloop
   endfacet
   facet normal -1.0000 0.0000 0.0000
      outer loop
         vertex 0.0000 -18.3526 -4.9176
         vertex 0.0000 4.9176 -18.3526
         vertex 0.0000 -0.0000 -19.0000
      endloop
   endfacet
   facet normal -1.0000 0.0000 0.0000
      outer loop
         vertex 0.0000 -18.3526 -4.9176
         vertex 0.0000 -0.0000 -19.0000
         vertex 0.0000 -4.9176 -18.3526
      endloop
   endfacet
   facet normal -1.0000 0.0000 0.0000
      outer loop
         vertex 0.0000 -18.3526 -4.9176
         vertex 0.0000 -4.9176 -18.3526
         vertex 0.0000 -9.5000 -16.4545
      endloop
   endfacet
   facet normal -1.0000 0.0000 0.0000
      outer loop
         vertex 0.0000 -18.3526 -4.9176
         vertex 0.0000 -9.5000 -16.4545
         vertex 0.0000 -13.4350 -13.4350
      endloop
   endfacet
   facet normal -1.0000 0.0000 0.0000
      outer loop
         vertex 0.0000 -18.3526 -4.9176
         vertex 0.0000 -13.4350 -13.4350
         vertex 0.0000 -16.4545 -9.5000
      endloop
   endfacet
   facet normal 1.0000 0.0000 0.0000
      outer loop
         vertex 35.0000 -18.3526 4.9176
         vertex 35.0000 -19.0000 0.0000
         vertex 35.0000 -18.3526 -4.9176
      endloop
   endfacet
   facet normal 1.0000 0.0000 0.0000
      outer loop
         vertex 35.0000 -18.3526 4.9176
         vertex 35.0000 -18.3526 -4.9176
         vertex 35.0000 -16.4545 -9.5000
      endloop
   endfacet
   facet normal 1.0000 0.0000 0.0000
      outer loop
         vertex 35.0000 -18.3526 4.9176
         vertex 35.0000 -16.4545 -9.5000
         vertex 35.0000 -13.4350 -13.4350
      endloop
   endfacet
   facet normal 1.0000 0.0000 0.0000
      outer loop
         vertex 35.0000 -18.3526 4.9176
         vertex 35.0000 -13.4350 -13.4350
         vertex 35.0000 -9.5000 -16.4545
      endloop
   endfacet
   facet normal 1.0000 0.0000 0.0000
      outer loop
         vertex 35.0000 -18.3526 4.9176
         vertex 35.0000 -9.5000 -16.4545
         vertex 35.0000 -4.9176 -18.3526
      endloop
   endfacet
   facet normal 1.0000 0.0000 0.0000
      outer loop
         vertex 35.0000 -18.3526 4.9176
         vertex 35.0000 -4.9176 -18.3526
         vertex 35.0000 -0.0000 -19.0000
      endloop
   endfacet
   facet normal 1.0000 0.0000 0.0000
      outer loop
         vertex 35.0000 -18.3526 4.9176
         vertex 35.0000 -0.0000 -19.0000
         vertex 35.0000 4.9176 -18.3526
      endloop
   endfacet
   facet normal 1.0000 0.0000 0.0000
      outer loop
         vertex 35.0000 -18.3526 4.9176
         vertex 35.0000 4.9176 -18.3526
         vertex 35.0000 9.5000 -16.4545
      endloop
   endfacet
   facet normal 1.0000 0.0000 0.0000
      outer loop
         vertex 35.0000 -18.3526 4.9176
         vertex 35.0000 9.5000 -16.4545
         vertex 35.0000 13.4350 -13.4350
      endloop
   endfacet
   facet normal 1.0000 0.0000 0.0000
      outer loop
         vertex 35.0000 -18.3526 4.9176
         vertex 35.0000 13.4350 -13.4350
         vertex 35.0000 16.4545 -9.5000
      endloop
   endfacet
   facet normal 1.0000 0.0000 0.0000
      outer loop
         vertex 35.0000 -18.3526 4.9176
         vertex 35.0000 16.4545 -9.5000
         vertex 35.0000 18.3526 -4.9176
      endloop
   endfacet
   facet normal 1.0000 0.0000 0.0000
      outer loop
         vertex 35.0000 -18.3526 4.9176
         vertex 35.0000 18.3526 -4.9176
         vertex 35.0000 19.0000 0.0000
      endloop
   endfacet
   facet normal 1.0000 0.0000 0.0000
      outer loop
         vertex 35.0000 -18.3526 4.9176
         vertex 35.0000 19.0000 0.0000
         vertex 35.0000 18.3526 4.9176
      endloop
   endfacet
   facet normal 1.0000 0.0000 0.0000
      outer loop
         vertex 35.0000 -18.3526 4.9176
         vertex 35.0000 18.3526 4.9176
         vertex 35.0000 16.4545 9.5000
      endloop
   endfacet
   facet normal 1.0000 0.0000 0.0000
      outer loop
         vertex 35.0000 -18.3526 4.9176
         vertex 35.0000 16.4545 9.5000
         vertex 35.0000 13.4350 13.4350
      endloop
   endfacet
   facet normal 1.0000 0.0000 0.0000
      outer loop
         vertex 35.0000 -18.3526 4.9176
         vertex 35.0000 13.4350 13.4350
         vertex 35.0000 9.5000 16.4545
      endloop
   endfacet
   facet normal 1.0000 0.0000 0.0000
      outer loop
         vertex 35.0000 -18.3526 4.9176
         vertex 35.0000 9.5000 16.4545
         vertex 35.0000 4.9176 18.3526
      endloop
   endfacet
   facet normal 1.0000 0.0000 0.0000
      outer loop
         vertex 35.0000 -18.3526 4.9176
         vertex 35.0000 4.9176 18.3526
         vertex 35.0000 0.0000 19.0000
      endloop
   endfacet
   facet normal 1.0000 0.0000 0.0000
      outer loop
         vertex 35.0000 -18.3526 4.9176
         vertex 35.0000 0.0000 19.0000
         vertex 35.0000 -4.9176 18.3526
      endloop
   endfacet
   facet normal 1.0000 0.0000 0.0000
      outer loop
         vertex 35.0000 -18.3526 4.9176
         vertex 35.0000 -4.9176 18.3526
         vertex 35.0000 -9.5000 16.4545
      endloop
   endfacet
   facet normal 1.0000 0.0000 0.0000
      outer loop
         vertex 35.0000 -18.3526 4.9176
         vertex 35.0000 -9.5000 16.4545
         vertex 35.0000 -13.4350 13.4350
      endloop
   endfacet
   facet normal 1.0000 0.0000 0.0000
      outer loop
         vertex 35.0000 -18.3526 4.9176
         vertex 35.0000 -13.4350 13.4350
         vertex 35.0000 -16.4545 9.5000
      endloop
   endfacet
   facet normal -0.7098 0.0612 -0.7017
      outer loop
         vertex 1.0000 5.1764 -19.3185
         vertex 1.0000 -0.0000 -20.0000
         vertex 0.0000 -0.0000 -19.0000
      endloop
   endfacet
   facet normal -0.7098 0.1225 -0.6937
      outer loop
         vertex 1.0000 5.1764 -19.3185
         vertex 0.0000 -0.0000 -19.0000
         vertex 0.0000 4.9176 -18.3526
      endloop
   endfacet
   facet normal 0.0000 0.0869 -0.9962
      outer loop
         vertex 34.0000 -0.0000 -20.0000
         vertex 1.0000 -0.0000 -20.0000
         vertex 1.0000 5.1764 -19.3185
      endloop
   endfacet
   facet normal 0.0000 0.1739 -0.9848
      outer loop
         vertex 34.0000 -0.0000 -20.0000
         vertex 1.0000 5.1764 -19.3185
         vertex 34.0000 5.1764 -19.3185
      endloop
   endfacet
   facet normal 0.7098 0.0612 -0.7017
      outer loop
         vertex 35.0000 -0.0000 -19.0000
         vertex 34.0000 -0.0000 -20.0000
         vertex 34.0000 5.1764 -19.3185
      endloop
   endfacet
   facet normal 0.7098 0.1225 -0.6937
      outer loop
         vertex 35.0000 -0.0000 -19.0000
         vertex 34.0000 5.1764 -19.3185
         vertex 35.0000 4.9176 -18.3526
      endloop
   endfacet
   facet normal -0.7098 0.2408 -0.6620
      outer loop
         vertex 1.0000 5.1764 -19.3185
         vertex 0.0000 4.9176 -18.3526
         vertex 0.0000 9.5000 -16.4545
      endloop
   endfacet
   facet normal -0.7098 0.2978 -0.6383
      outer loop
         vertex 1.0000 5.1764 -19.3185
         vertex 0.0000 9.5000 -16.4545
         vertex 1.0000 10.0000 -17.3205
      endloop
   endfacet
   facet normal 0.0000 0.3418 -0.9398
      outer loop
         vertex 34.0000 5.1764 -19.3185
         vertex 1.0000 5.1764 -19.3185
         vertex 1.0000 10.0000 -17.3205
      endloop
   endfacet
   facet normal 0.0000 0.4228 -0.9062
      outer loop
         vertex 34.0000 5.1764 -19.3185
         vertex 1.0000 10.0000 -17.3205
         vertex 34.0000 10.0000 -17.3205
      endloop
   endfacet
   facet normal 0.7098 0.2408 -0.6620
      outer loop
         vertex 35.0000 9.5000 -16.4545
         vertex 35.0000 4.9176 -18.3526
         vertex 34.0000 5.1764 -19.3185
      endloop
   endfacet
   facet normal 0.7098 0.2978 -0.6383
      outer loop
         vertex 35.0000 9.5000 -16.4545
         vertex 34.0000 5.1764 -19.3185
         vertex 34.0000 10.0000 -17.3205
      endloop
   endfacet
   facet normal -0.7098 0.4039 -0.5771
      outer loop
         vertex 1.0000 10.0000 -17.3205
         vertex 0.0000 9.5000 -16.4545
         vertex 0.0000 13.4350 -13.4350
      endloop
   endfacet
   facet normal -0.7098 0.4529 -0.5395
      outer loop
         vertex 1.0000 10.0000 -17.3205
         vertex 0.0000 13.4350 -13.4350
         vertex 1.0000 14.1421 -14.1421
      endloop
   endfacet
   facet normal 0.0000 0.5734 -0.8193
      outer loop
         vertex 34.0000 10.0000 -17.3205
         vertex 1.0000 10.0000 -17.3205
         vertex 1.0000 14.1421 -14.1421
      endloop
   endfacet
   facet normal 0.0000 0.6430 -0.7659
      outer loop
         vertex 34.0000 10.0000 -17.3205
         vertex 1.0000 14.1421 -14.1421
         vertex 34.0000 14.1421 -14.1421
      endloop
   endfacet
   facet normal 0.7098 0.4039 -0.5771
      outer loop
         vertex 35.0000 13.4350 -13.4350
         vertex 35.0000 9.5000 -16.4545
         vertex 34.0000 10.0000 -17.3205
      endloop
   endfacet
   facet normal 0.7098 0.4529 -0.5395
      outer loop
         vertex 35.0000 13.4350 -13.4350
         vertex 34.0000 10.0000 -17.3205
         vertex 34.0000 14.1421 -14.1421
      endloop
   endfacet
   facet normal -0.7098 0.5395 -0.4529
      outer loop
         vertex 1.0000 17.3205 -10.0000
         vertex 1.0000 14.1421 -14.1421
         vertex 0.0000 13.4350 -13.4350
      endloop
   endfacet
   facet normal -0.7098 0.5771 -0.4039
      outer loop
         vertex 1.0000 17.3205 -10.0000
         vertex 0.0000 13.4350 -13.4350
         vertex 0.0000 16.4545 -9.5000
      endloop
   endfacet
   facet normal 0.0000 0.7659 -0.6430
      outer loop
         vertex 34.0000 14.1421 -14.1421
         vertex 1.0000 14.1421 -14.1421
         vertex 1.0000 17.3205 -10.0000
      endloop
   endfacet
   facet normal 0.0000 0.8193 -0.5734
      outer loop
         vertex 34.0000 14.1421 -14.1421
         vertex 1.0000 17.3205 -10.0000
         vertex 34.0000 17.3205 -10.0000
      endloop
   endfacet
   facet normal 0.7098 0.5395 -0.4529
      outer loop
         vertex 35.0000 13.4350 -13.4350
         vertex 34.0000 14.1421 -14.1421
         vertex 34.0000 17.3205 -10.0000
      endloop
   endfacet
   facet normal 0.7098 0.5771 -0.4039
      outer loop
         vertex 35.0000 13.4350 -13.4350
         vertex 34.0000 17.3205 -10.0000
         vertex 35.0000 16.4545 -9.5000
      endloop
   endfacet
   facet normal -0.7098 0.6383 -0.2978
      outer loop
         vertex 1.0000 19.3185 -5.1764
         vertex 1.0000 17.3205 -10.0000
         vertex 0.0000 16.4545 -9.5000
      endloop
   endfacet
   facet normal -0.7098 0.6620 -0.2408
      outer loop
         vertex 1.0000 19.3185 -5.1764
         vertex 0.0000 16.4545 -9.5000
         vertex 0.0000 18.3526 -4.9176
      endloop
   endfacet
   facet normal 0.0000 0.9062 -0.4228
      outer loop
         vertex 34.0000 17.3205 -10.0000
         vertex 1.0000 17.3205 -10.0000
         vertex 1.0000 19.3185 -5.1764
      endloop
   endfacet
   facet normal 0.0000 0.9398 -0.3418
      outer loop
         vertex 34.0000 17.3205 -10.0000
         vertex 1.0000 19.3185 -5.1764
         vertex 34.0000 19.3185 -5.1764
      endloop
   endfacet
   facet normal 0.7098 0.6383 -0.2978
      outer loop
         vertex 35.0000 16.4545 -9.5000
         vertex 34.0000 17.3205 -10.0000
         vertex 34.0000 19.3185 -5.1764
      endloop
   endfacet
   facet normal 0.7098 0.6620 -0.2408
      outer loop
         vertex 35.0000 16.4545 -9.5000
         vertex 34.0000 19.3185 -5.1764
         vertex 35.0000 18.3526 -4.9176
      endloop
   endfacet
   facet normal -0.7098 0.6937 -0.1225
      outer loop
         vertex 1.0000 20.0000 0.0000
         vertex 1.0000 19.3185 -5.1764
         vertex 0.0000 18.3526 -4.9176
      endloop
   endfacet
   facet normal -0.7098 0.7017 -0.0612
      outer loop
         vertex 1.0000 20.0000 0.0000
         vertex 0.0000 18.3526 -4.9176
         vertex 0.0000 19.0000 0.0000
      endloop
   endfacet
   facet normal 0.0000 0.9848 -0.1739
      outer loop
         vertex 34.0000 19.3185 -5.1764
         vertex 1.0000 19.3185 -5.1764
         vertex 1.0000 20.0000 0.0000
      endloop
   endfacet
   facet normal 0.0000 0.9962 -0.0869
      outer loop
         vertex 34.0000 19.3185 -5.1764
         vertex 1.0000 20.0000 0.0000
         vertex 34.0000 20.0000 0.0000
      endloop
   endfacet
   facet normal 0.7098 0.6937 -0.1225
      outer loop
         vertex 35.0000 18.3526 -4.9176
         vertex 34.0000 19.3185 -5.1764
         vertex 34.0000 20.0000 0.0000
      endloop
   endfacet
   facet normal 0.7098 0.7017 -0.0612
      outer loop
         vertex 35.0000 18.3526 -4.9176
         vertex 34.0000 20.0000 0.0000
         vertex 35.0000 19.0000 0.0000
      endloop
   endfacet
   facet normal -0.7098 0.7017 0.0612
      outer loop
         vertex 1.0000 20.0000 0.0000
         vertex 0.0000 19.0000 0.0000
         vertex 0.0000 18.3526 4.9176
      endloop
   endfacet
   facet normal -0.7098 0.6937 0.1225
      outer loop
         vertex 1.0000 20.0000 0.0000
         vertex 0.0000 18.3526 4.9176
         vertex 1.0000 19.3185 5.1764
      endloop
   endfacet
   facet normal 0.0000 0.9962 0.0869
      outer loop
         vertex 34.0000 20.0000 0.0000
         vertex 1.0000 20.0000 0.0000
         vertex 1.0000 19.3185 5.1764
      endloop
   endfacet
   facet normal 0.0000 0.9848 0.1739
      outer loop
         vertex 34.0000 20.0000 0.0000
         vertex 1.0000 19.3185 5.1764
         vertex 34.0000 19.3185 5.1764
      endloop
   endfacet
   facet normal 0.7098 0.7017 0.0612
      outer loop
         vertex 35.0000 18.3526 4.9176
         vertex 35.0000 19.0000 0.0000
         vertex 34.0000 20.0000 0.0000
      endloop
   endfacet
   facet normal 0.7098 0.6937 0.1225
      outer loop
         vertex 35.0000 18.3526 4.9176
         vertex 34.0000 20.0000 0.0000
         vertex 34.0000 19.3185 5.1764
      endloop
   endfacet
   facet normal -0.7098 0.6620 0.2408
      outer loop
         vertex 1.0000 19.3185 5.1764
         vertex 0.0000 18.3526 4.9176
         vertex 0.0000 16.4545 9.5000
      endloop
   endfacet
   facet normal -0.7098 0.6383 0.2978
      outer loop
         vertex 1.0000 19.3185 5.1764
         vertex 0.0000 16.4545 9.5000
         vertex 1.0000 17.3205 10.0000
      endloop
   endfacet
   facet normal 0.0000 0.9398 0.3418
      outer loop
         vertex 34.0000 19.3185 5.1764
         vertex 1.0000 19.3185 5.1764
         vertex 1.0000 17.3205 10.0000
      endloop
   endfacet
   facet normal 0.0000 0.9062 0.4228
      outer loop
         vertex 34.0000 19.3185 5.1764
         vertex 1.0000 17.3205 10.0000
         vertex 34.0000 17.3205 10.0000
      endloop
   endfacet
   facet normal 0.7098 0.6620 0.2408
      outer loop
         vertex 35.0000 16.4545 9.5000
         vertex 35.0000 18.3526 4.9176
         vertex 34.0000 19.3185 5.1764
      endloop
   endfacet
   facet normal 0.7098 0.6383 0.2978
      outer loop
         vertex 35.0000 16.4545 9.5000
         vertex 34.0000 19.3185 5.1764
         vertex 34.0000 17.3205 10.0000
      endloop
   endfacet
   facet normal -0.7098 0.5771 0.4039
      outer loop
         vertex 1.0000 17.3205 10.0000
         vertex 0.0000 16.4545 9.5000
         vertex 0.0000 13.4350 13.4350
      endloop
   endfacet
   facet normal -0.7098 0.5395 0.4529
      outer loop
         vertex 1.0000 17.3205 10.0000
         vertex 0.0000 13.4350 13.4350
         vertex 1.0000 14.1421 14.1421
      endloop
   endfacet
   facet normal 0.0000 0.8193 0.5734
      outer loop
         vertex 34.0000 17.3205 10.0000
         vertex 1.0000 17.3205 10.0000
         vertex 1.0000 14.1421 14.1421
      endloop
   endfacet
   facet normal 0.0000 0.7659 0.6430
      outer loop
         vertex 34.0000 17.3205 10.0000
         vertex 1.0000 14.1421 14.1421
         vertex 34.0000 14.1421 14.1421
      endloop
   endfacet
   facet normal 0.7098 0.5771 0.4039
      outer loop
         vertex 35.0000 13.4350 13.4350
         vertex 35.0000 16.4545 9.5000
         vertex 34.0000 17.3205 10.0000
      endloop
   endfacet
   facet normal 0.7098 0.5395 0.4529
      outer loop
         vertex 35.0000 13.4350 13.4350
         vertex 34.0000 17.3205 10.0000
         vertex 34.0000 14.1421 14.1421
      endloop
   endfacet
   facet normal -0.7098 0.4039 0.5771
      outer loop
         vertex 0.0000 13.4350 13.4350
         vertex 0.0000 9.5000 16.4545
         vertex 1.0000 10.0000 17.3205
      endloop
   endfacet
   facet normal -0.7098 0.4529 0.5395
      outer loop
         vertex 0.0000 13.4350 13.4350
         vertex 1.0000 10.0000 17.3205
         vertex 1.0000 14.1421 14.1421
      endloop
   endfacet
   facet normal 0.0000 0.6430 0.7659
      outer loop
         vertex 34.0000 14.1421 14.1421
         vertex 1.0000 14.1421 14.1421
         vertex 1.0000 10.0000 17.3205
      endloop
   endfacet
   facet normal 0.0000 0.5734 0.8193
      outer loop
         vertex 34.0000 14.1421 14.1421
         vertex 1.0000 10.0000 17.3205
         vertex 34.0000 10.0000 17.3205
      endloop
   endfacet
   facet normal 0.7098 0.4039 0.5771
      outer loop
         vertex 34.0000 10.0000 17.3205
         vertex 35.0000 9.5000 16.4545
         vertex 35.0000 13.4350 13.4350
      endloop
   endfacet
   facet normal 0.7098 0.4529 0.5395
      outer loop
         vertex 34.0000 10.0000 17.3205
         vertex 35.0000 13.4350 13.4350
         vertex 34.0000 14.1421 14.1421
      endloop
   endfacet
   facet normal -0.7098 0.2408 0.6620
      outer loop
         vertex 0.0000 9.5000 16.4545
         vertex 0.0000 4.9176 18.3526
         vertex 1.0000 5.1764 19.3185
      endloop
   endfacet
   facet normal -0.7098 0.2978 0.6383
      outer loop
         vertex 0.0000 9.5000 16.4545
         vertex 1.0000 5.1764 19.3185
         vertex 1.0000 10.0000 17.3205
      endloop
   endfacet
   facet normal 0.0000 0.4228 0.9062
      outer loop
         vertex 34.0000 10.0000 17.3205
         vertex 1.0000 10.0000 17.3205
         vertex 1.0000 5.1764 19.3185
      endloop
   endfacet
   facet normal 0.0000 0.3418 0.9398
      outer loop
         vertex 34.0000 10.0000 17.3205
         vertex 1.0000 5.1764 19.3185
         vertex 34.0000 5.1764 19.3185
      endloop
   endfacet
   facet normal 0.7098 0.2408 0.6620
      outer loop
         vertex 34.0000 5.1764 19.3185
         vertex 35.0000 4.9176 18.3526
         vertex 35.0000 9.5000 16.4545
      endloop
   endfacet
   facet normal 0.7098 0.2978 0.6383
      outer loop
         vertex 34.0000 5.1764 19.3185
         vertex 35.0000 9.5000 16.4545
         vertex 34.0000 10.0000 17.3205
      endloop
   endfacet
   facet normal -0.7098 0.0612 0.7017
      outer loop
         vertex 0.0000 0.0000 19.0000
         vertex 1.0000 0.0000 20.0000
         vertex 1.0000 5.1764 19.3185
      endloop
   endfacet
   facet normal -0.7098 0.1225 0.6937
      outer loop
         vertex 0.0000 0.0000 19.0000
         vertex 1.0000 5.1764 19.3185
         vertex 0.0000 4.9176 18.3526
      endloop
   endfacet
   facet normal 0.0000 0.1739 0.9848
      outer loop
         vertex 34.0000 5.1764 19.3185
         vertex 1.0000 5.1764 19.3185
         vertex 1.0000 0.0000 20.0000
      endloop
   endfacet
   facet normal 0.0000 0.0869 0.9962
      outer loop
         vertex 34.0000 5.1764 19.3185
         vertex 1.0000 0.0000 20.0000
         vertex 34.0000 0.0000 20.0000
      endloop
   endfacet
   facet normal 0.7098 0.0612 0.7017
      outer loop
         vertex 34.0000 5.1764 19.3185
         vertex 34.0000 0.0000 20.0000
         vertex 35.0000 0.0000 19.0000
      endloop
   endfacet
   facet normal 0.7098 0.1225 0.6937
      outer loop
         vertex 34.0000 5.1764 19.3185
         vertex 35.0000 0.0000 19.0000
         vertex 35.0000 4.9176 18.3526
      endloop
   endfacet
   facet normal -0.7098 -0.1225 0.6937
      outer loop
         vertex 0.0000 -4.9176 18.3526
         vertex 1.0000 -5.1764 19.3185
         vertex 1.0000 0.0000 20.0000
      endloop
   endfacet
   facet normal -0.7098 -0.0612 0.7017
      outer loop
         vertex 0.0000 -4.9176 18.3526
         vertex 1.0000 0.0000 20.0000
         vertex 0.0000 0.0000 19.0000
      endloop
   endfacet
   facet normal 0.0000 -0.0869 0.9962
      outer loop
         vertex 34.0000 0.0000 20.0000
         vertex 1.0000 0.0000 20.0000
         vertex 1.0000 -5.1764 19.3185
      endloop
   endfacet
   facet normal 0.0000 -0.1739 0.9848
      outer loop
         vertex 34.0000 0.0000 20.0000
         vertex 1.0000 -5.1764 19.3185
         vertex 34.0000 -5.1764 19.3185
      endloop
   endfacet
   facet normal 0.7098 -0.1225 0.6937
      outer loop
         vertex 34.0000 0.0000 20.0000
         vertex 34.0000 -5.1764 19.3185
         vertex 35.0000 -4.9176 18.3526
      endloop
   endfacet
   facet normal 0.7098 -0.0612 0.7017
      outer loop
         vertex 34.0000 0.0000 20.0000
         vertex 35.0000 -4.9176 18.3526
         vertex 35.0000 0.0000 19.0000
      endloop
   endfacet
   facet normal -0.7098 -0.2978 0.6383
      outer loop
         vertex 0.0000 -9.5000 16.4545
         vertex 1.0000 -10.0000 17.3205
         vertex 1.0000 -5.1764 19.3185
      endloop
   endfacet
   facet normal -0.7098 -0.2408 0.6620
      outer loop
         vertex 0.0000 -9.5000 16.4545
         vertex 1.0000 -5.1764 19.3185
         vertex 0.0000 -4.9176 18.3526
      endloop
   endfacet
   facet normal 0.0000 -0.3418 0.9398
      outer loop
         vertex 34.0000 -5.1764 19.3185
         vertex 1.0000 -5.1764 19.3185
         vertex 1.0000 -10.0000 17.3205
      endloop
   endfacet
   facet normal 0.0000 -0.4228 0.9062
      outer loop
         vertex 34.0000 -5.1764 19.3185
         vertex 1.0000 -10.0000 17.3205
         vertex 34.0000 -10.0000 17.3205
      endloop
   endfacet
   facet normal 0.7098 -0.2978 0.6383
      outer loop
         vertex 34.0000 -5.1764 19.3185
         vertex 34.0000 -10.0000 17.3205
         vertex 35.0000 -9.5000 16.4545
      endloop
   endfacet
   facet normal 0.7098 -0.2408 0.6620
      outer loop
         vertex 34.0000 -5.1764 19.3185
         vertex 35.0000 -9.5000 16.4545
         vertex 35.0000 -4.9176 18.3526
      endloop
   endfacet
   facet normal -0.7098 -0.4529 0.5395
      outer loop
         vertex 0.0000 -13.4350 13.4350
         vertex 1.0000 -14.1421 14.1421
         vertex 1.0000 -10.0000 17.3205
      endloop
   endfacet
   facet normal -0.7098 -0.4039 0.5771
      outer loop
         vertex 0.0000 -13.4350 13.4350
         vertex 1.0000 -10.0000 17.3205
         vertex 0.0000 -9.5000 16.4545
      endloop
   endfacet
   facet normal 0.0000 -0.5734 0.8193
      outer loop
         vertex 34.0000 -10.0000 17.3205
         vertex 1.0000 -10.0000 17.3205
         vertex 1.0000 -14.1421 14.1421
      endloop
   endfacet
   facet normal 0.0000 -0.6430 0.7659
      outer loop
         vertex 34.0000 -10.0000 17.3205
         vertex 1.0000 -14.1421 14.1421
         vertex 34.0000 -14.1421 14.1421
      endloop
   endfacet
   facet normal 0.7098 -0.4529 0.5395
      outer loop
         vertex 34.0000 -10.0000 17.3205
         vertex 34.0000 -14.1421 14.1421
         vertex 35.0000 -13.4350 13.4350
      endloop
   endfacet
   facet normal 0.7098 -0.4039 0.5771
      outer loop
         vertex 34.0000 -10.0000 17.3205
         vertex 35.0000 -13.4350 13.4350
         vertex 35.0000 -9.5000 16.4545
      endloop
   endfacet
   facet normal -0.7098 -0.5771 0.4039
      outer loop
         vertex 0.0000 -13.4350 13.4350
         vertex 0.0000 -16.4545 9.5000
         vertex 1.0000 -17.3205 10.0000
      endloop
   endfacet
   facet normal -0.7098 -0.5395 0.4529
      outer loop
         vertex 0.0000 -13.4350 13.4350
         vertex 1.0000 -17.3205 10.0000
         vertex 1.0000 -14.1421 14.1421
      endloop
   endfacet
   facet normal 0.0000 -0.7659 0.6430
      outer loop
         vertex 34.0000 -14.1421 14.1421
         vertex 1.0000 -14.1421 14.1421
         vertex 1.0000 -17.3205 10.0000
      endloop
   endfacet
   facet normal 0.0000 -0.8193 0.5734
      outer loop
         vertex 34.0000 -14.1421 14.1421
         vertex 1.0000 -17.3205 10.0000
         vertex 34.0000 -17.3205 10.0000
      endloop
   endfacet
   facet normal 0.7098 -0.5771 0.4039
      outer loop
         vertex 34.0000 -17.3205 10.0000
         vertex 35.0000 -16.4545 9.5000
         vertex 35.0000 -13.4350 13.4350
      endloop
   endfacet
   facet normal 0.7098 -0.5395 0.4529
      outer loop
         vertex 34.0000 -17.3205 10.0000
         vertex 35.0000 -13.4350 13.4350
         vertex 34.0000 -14.1421 14.1421
      endloop
   endfacet
   facet normal -0.7098 -0.6620 0.2408
      outer loop
         vertex 0.0000 -16.4545 9.5000
         vertex 0.0000 -18.3526 4.9176
         vertex 1.0000 -19.3185 5.1764
      endloop
   endfacet
   facet normal -0.7098 -0.6383 0.2978
      outer loop
         vertex 0.0000 -16.4545 9.5000
         vertex 1.0000 -19.3185 5.1764
         vertex 1.0000 -17.3205 10.0000
      endloop
   endfacet
   facet normal 0.0000 -0.9062 0.4228
      outer loop
         vertex 34.0000 -17.3205 10.0000
         vertex 1.0000 -17.3205 10.0000
         vertex 1.0000 -19.3185 5.1764
      endloop
   endfacet
   facet normal 0.0000 -0.9398 0.3418
      outer loop
         vertex 34.0000 -17.3205 10.0000
         vertex 1.0000 -19.3185 5.1764
         vertex 34.0000 -19.3185 5.1764
      endloop
   endfacet
   facet normal 0.7098 -0.6620 0.2408
      outer loop
         vertex 34.0000 -19.3185 5.1764
         vertex 35.0000 -18.3526 4.9176
         vertex 35.0000 -16.4545 9.5000
      endloop
   endfacet
   facet normal 0.7098 -0.6383 0.2978
      outer loop
         vertex 34.0000 -19.3185 5.1764
         vertex 35.0000 -16.4545 9.5000
         vertex 34.0000 -17.3205 10.0000
      endloop
   endfacet
   facet normal -0.7098 -0.7017 0.0612
      outer loop
         vertex 0.0000 -19.0000 0.0000
         vertex 1.0000 -20.0000 0.0000
         vertex 1.0000 -19.3185 5.1764
      endloop
   endfacet
   facet normal -0.7098 -0.6937 0.1225
      outer loop
         vertex 0.0000 -19.0000 0.0000
         vertex 1.0000 -19.3185 5.1764
         vertex 0.0000 -18.3526 4.9176
      endloop
   endfacet
   facet normal 0.0000 -0.9848 0.1739
      outer loop
         vertex 34.0000 -19.3185 5.1764
         vertex 1.0000 -19.3185 5.1764
         vertex 1.0000 -20.0000 0.0000
      endloop
   endfacet
   facet normal 0.0000 -0.9962 0.0869
      outer loop
         vertex 34.0000 -19.3185 5.1764
         vertex 1.0000 -20.0000 0.0000
         vertex 34.0000 -20.0000 0.0000
      endloop
   endfacet
   facet normal 0.7098 -0.7017 0.0612
      outer loop
         vertex 34.0000 -20.0000 0.0000
         vertex 35.0000 -19.0000 0.0000
         vertex 35.0000 -18.3526 4.9176
      endloop
   endfacet
   facet normal 0.7098 -0.6937 0.1225
      outer loop
         vertex 34.0000 -20.0000 0.0000
         vertex 35.0000 -18.3526 4.9176
         vertex 34.0000 -19.3185 5.1764
      endloop
   endfacet
   facet normal -0.7098 -0.6937 -0.1225
      outer loop
         vertex 0.0000 -18.3526 -4.9176
         vertex 1.0000 -19.3185 -5.1764
         vertex 1.0000 -20.0000 0.0000
      endloop
   endfacet
   facet normal -0.7098 -0.7017 -0.0612
      outer loop
         vertex 0.0000 -18.3526 -4.9176
         vertex 1.0000 -20.0000 0.0000
         vertex 0.0000 -19.0000 0.0000
      endloop
   endfacet
   facet normal 0.0000 -0.9962 -0.0869
      outer loop
         vertex 34.0000 -20.0000 0.0000
         vertex 1.0000 -20.0000 0.0000
         vertex 1.0000 -19.3185 -5.1764
      endloop
   endfacet
   facet normal 0.0000 -0.9848 -0.1739
      outer loop
         vertex 34.0000 -20.0000 0.0000
         vertex 1.0000 -19.3185 -5.1764
         vertex 34.0000 -19.3185 -5.1764
      endloop
   endfacet
   facet normal 0.7098 -0.6937 -0.1225
      outer loop
         vertex 34.0000 -20.0000 0.0000
         vertex 34.0000 -19.3185 -5.1764
         vertex 35.0000 -18.3526 -4.9176
      endloop
   endfacet
   facet normal 0.7098 -0.7017 -0.0612
      outer loop
         vertex 34.0000 -20.0000 0.0000
         vertex 35.0000 -18.3526 -4.9176
         vertex 35.0000 -19.0000 0.0000
      endloop
   endfacet
   facet normal -0.7098 -0.6383 -0.2978
      outer loop
         vertex 0.0000 -16.4545 -9.5000
         vertex 1.0000 -17.3205 -10.0000
         vertex 1.0000 -19.3185 -5.1764
      endloop
   endfacet
   facet normal -0.7098 -0.6620 -0.2408
      outer loop
         vertex 0.0000 -16.4545 -9.5000
         vertex 1.0000 -19.3185 -5.1764
         vertex 0.0000 -18.3526 -4.9176
      endloop
   endfacet
   facet normal 0.0000 -0.9398 -0.3418
      outer loop
         vertex 34.0000 -19.3185 -5.1764
         vertex 1.0000 -19.3185 -5.1764
         vertex 1.0000 -17.3205 -10.0000
      endloop
   endfacet
   facet normal 0.0000 -0.9062 -0.4228
      outer loop
         vertex 34.0000 -19.3185 -5.1764
         vertex 1.0000 -17.3205 -10.0000
         vertex 34.0000 -17.3205 -10.0000
      endloop
   endfacet
   facet normal 0.7098 -0.6383 -0.2978
      outer loop
         vertex 34.0000 -19.3185 -5.1764
         vertex 34.0000 -17.3205 -10.0000
         vertex 35.0000 -16.4545 -9.5000
      endloop
   endfacet
   facet normal 0.7098 -0.6620 -0.2408
      outer loop
         vertex 34.0000 -19.3185 -5.1764
         vertex 35.0000 -16.4545 -9.5000
         vertex 35.0000 -18.3526 -4.9176
      endloop
   endfacet
   facet normal -0.7098 -0.5395 -0.4529
      outer loop
         vertex 0.0000 -13.4350 -13.4350
         vertex 1.0000 -14.1421 -14.1421
         vertex 1.0000 -17.3205 -10.0000
      endloop
   endfacet
   facet normal -0.7098 -0.5771 -0.4039
      outer loop
         vertex 0.0000 -13.4350 -13.4350
         vertex 1.0000 -17.3205 -10.0000
         vertex 0.0000 -16.4545 -9.5000
      endloop
   endfacet
   facet normal 0.0000 -0.8193 -0.5734
      outer loop
         vertex 34.0000 -17.3205 -10.0000
         vertex 1.0000 -17.3205 -10.0000
         vertex 1.0000 -14.1421 -14.1421
      endloop
   endfacet
   facet normal 0.0000 -0.7659 -0.6430
      outer loop
         vertex 34.0000 -17.3205 -10.0000
         vertex 1.0000 -14.1421 -14.1421
         vertex 34.0000 -14.1421 -14.1421
      endloop
   endfacet
   facet normal 0.7098 -0.5395 -0.4529
      outer loop
         vertex 34.0000 -17.3205 -10.0000
         vertex 34.0000 -14.1421 -14.1421
         vertex 35.0000 -13.4350 -13.4350
      endloop
   endfacet
   facet normal 0.7098 -0.5771 -0.4039
      outer loop
         vertex 34.0000 -17.3205 -10.0000
         vertex 35.0000 -13.4350 -13.4350
         vertex 35.0000 -16.4545 -9.5000
      endloop
   endfacet
   facet normal -0.7098 -0.4529 -0.5395
      outer loop
         vertex 1.0000 -10.0000 -17.3205
         vertex 1.0000 -14.1421 -14.1421
         vertex 0.0000 -13.4350 -13.4350
      endloop
   endfacet
   facet normal -0.7098 -0.4039 -0.5771
      outer loop
         vertex 1.0000 -10.0000 -17.3205
         vertex 0.0000 -13.4350 -13.4350
         vertex 0.0000 -9.5000 -16.4545
      endloop
   endfacet
   facet normal 0.0000 -0.6430 -0.7659
      outer loop
         vertex 34.0000 -14.1421 -14.1421
         vertex 1.0000 -14.1421 -14.1421
         vertex 1.0000 -10.0000 -17.3205
      endloop
   endfacet
   facet normal 0.0000 -0.5734 -0.8193
      outer loop
         vertex 34.0000 -14.1421 -14.1421
         vertex 1.0000 -10.0000 -17.3205
         vertex 34.0000 -10.0000 -17.3205
      endloop
   endfacet
   facet normal 0.7098 -0.4529 -0.5395
      outer loop
         vertex 35.0000 -13.4350 -13.4350
         vertex 34.0000 -14.1421 -14.1421
         vertex 34.0000 -10.0000 -17.3205
      endloop
   endfacet
   facet normal 0.7098 -0.4039 -0.5771
      outer loop
         vertex 35.0000 -13.4350 -13.4350
         vertex 34.0000 -10.0000 -17.3205
         vertex 35.0000 -9.5000 -16.4545
      endloop
   endfacet
   facet normal -0.7098 -0.2978 -0.6383
      outer loop
         vertex 1.0000 -5.1764 -19.3185
         vertex 1.0000 -10.0000 -17.3205
         vertex 0.0000 -9.5000 -16.4545
      endloop
   endfacet
   facet normal -0.7098 -0.2408 -0.6620
      outer loop
         vertex 1.0000 -5.1764 -19.3185
         vertex 0.0000 -9.5000 -16.4545
         vertex 0.0000 -4.9176 -18.3526
      endloop
   endfacet
   facet normal 0.0000 -0.4228 -0.9062
      outer loop
         vertex 34.0000 -10.0000 -17.3205
         vertex 1.0000 -10.0000 -17.3205
         vertex 1.0000 -5.1764 -19.3185
      endloop
   endfacet
   facet normal 0.0000 -0.3418 -0.9398
      outer loop
         vertex 34.0000 -10.0000 -17.3205
         vertex 1.0000 -5.1764 -19.3185
         vertex 34.0000 -5.1764 -19.3185
      endloop
   endfacet
   facet normal 0.7098 -0.2978 -0.6383
      outer loop
         vertex 35.0000 -9.5000 -16.4545
         vertex 34.0000 -10.0000 -17.3205
         vertex 34.0000 -5.1764 -19.3185
      endloop
   endfacet
   facet normal 0.7098 -0.2408 -0.6620
      outer loop
         vertex 35.0000 -9.5000 -16.4545
         vertex 34.0000 -5.1764 -19.3185
         vertex 35.0000 -4.9176 -18.3526
      endloop
   endfacet
   facet normal -0.7098 -0.1225 -0.6937
      outer loop
         vertex 1.0000 -0.0000 -20.0000
         vertex 1.0000 -5.1764 -19.3185
         vertex 0.0000 -4.9176 -18.3526
      endloop
   endfacet
   facet normal -0.7098 -0.0612 -0.7017
      outer loop
         vertex 1.0000 -0.0000 -20.0000
         vertex 0.0000 -4.9176 -18.3526
         vertex 0.0000 -0.0000 -19.0000
      endloop
   endfacet
   facet normal 0.0000 -0.1739 -0.9848
      outer loop
         vertex 34.0000 -5.1764 -19.3185
         vertex 1.0000 -5.1764 -19.3185
         vertex 1.0000 -0.0000 -20.0000
      endloop
   endfacet
   facet normal 0.0000 -0.0869 -0.9962
      outer loop
         vertex 34.0000 -5.1764 -19.3185
         vertex 1.0000 -0.0000 -20.0000
         vertex 34.0000 -0.0000 -20.0000
      endloop
   endfacet
   facet normal 0.7098 -0.1225 -0.6937
      outer loop
         vertex 35.0000 -4.9176 -18.3526
         vertex 34.0000 -5.1764 -19.3185
         vertex 34.0000 -0.0000 -20.0000
      endloop
   endfacet
   facet normal 0.7098 -0.0612 -0.7017
      outer loop
         vertex 35.0000 -4.9176 -18.3526
         vertex 34.0000 -0.0000 -20.0000
         vertex 35.0000 -0.0000 -19.0000
      endloop
   endfacet
endsolid
